<svg viewBox=" 0 0 47 47" xmlns="http://www.w3.org/2000/svg">
<path
 style="fill:#ff0000;fill-rule:evenodd; fill-opacity:0.5;stroke:#000000;stroke-linejoin=round;stroke-width:0.2;stroke-linecap:round"
d="m 23.38268590217984,27.0 m 0,0 l -12.990381056766578,-7.5 l 12.990381056766578,-7.5 l 12.990381056766578,7.5 l -12.990381056766578,7.5 m 0.0,-1.0 l -11.258330249197702,-6.5 l 11.258330249197702,-6.5 l 11.258330249197702,6.5 l -11.258330249197702,6.5 "
/>
<path
 style="fill:#00ff00;fill-rule:evenodd; fill-opacity:0.5;stroke:#000000;stroke-linejoin=round;stroke-width:0.2;stroke-linecap:round"
d="m 23.38268590217984,27.0 m 0,0 l -0.0,15.0 l -12.990381056766578,-7.5 l 0.0,-15.0 l 12.990381056766578,7.5 m -0.8660254037844386,0.5 l -0.0,13.0 l -11.258330249197702,-6.5 l 0.0,-13.0 l 11.258330249197702,6.5 "
/>
<path
 style="fill:#0000ff;fill-rule:evenodd; fill-opacity:0.5;stroke:#000000;stroke-linejoin=round;stroke-width:0.2;stroke-linecap:round"
d="m 23.38268590217984,27.0 m 0,0 l -0.0,15.0 l 12.990381056766578,-7.5 l 0.0,-15.0 l -12.990381056766578,7.5 m 0.8660254037844386,0.5 l -0.0,13.0 l 11.258330249197702,-6.5 l 0.0,-13.0 l -11.258330249197702,6.5 "
/>
<path
 style="fill:#00ff00;fill-rule:evenodd; fill-opacity:0.5;stroke:#000000;stroke-linejoin=round;stroke-width:0.2;stroke-linecap:round"
d="m 23.38268590217984,27.0 m 0.0,-14.0 l 11.258330249197702,6.5 l -0.8660254037844386,0.5 l -10.392304845413264,-6.0 l 0.0,-1.0 "
/>
<path
 style="fill:#0000ff;fill-rule:evenodd; fill-opacity:0.5;stroke:#000000;stroke-linejoin=round;stroke-width:0.2;stroke-linecap:round"
d="m 23.38268590217984,27.0 m 0.0,-14.0 l -11.258330249197702,6.5 l 0.8660254037844386,0.5 l 10.392304845413264,-6.0 l 0.0,-1.0 "
/>
<path
 style="fill:#ff0000;fill-rule:evenodd; fill-opacity:0.5;stroke:#000000;stroke-linejoin=round;stroke-width:0.2;stroke-linecap:round"
d="m 23.38268590217984,27.0 m 12.12435565298214,7.0 l -0.8660254037844386,-0.5 l -10.392304845413264,6.0 l -0.0,1.0 l 11.258330249197702,-6.5 "
/>
<path
 style="fill:#00ff00;fill-rule:evenodd; fill-opacity:0.5;stroke:#000000;stroke-linejoin=round;stroke-width:0.2;stroke-linecap:round"
d="m 23.38268590217984,27.0 m 12.12435565298214,7.0 l -0.8660254037844386,-0.5 l 0.0,-12.0 l 0.8660254037844386,-0.5 l -0.0,13.0 "
/>
<path
 style="fill:#ff0000;fill-rule:evenodd; fill-opacity:0.5;stroke:#000000;stroke-linejoin=round;stroke-width:0.2;stroke-linecap:round"
d="m 23.38268590217984,27.0 m -12.12435565298214,7.0 l 0.8660254037844386,-0.5 l 10.392304845413264,6.0 l -0.0,1.0 l -11.258330249197702,-6.5 "
/>
<path
 style="fill:#0000ff;fill-rule:evenodd; fill-opacity:0.5;stroke:#000000;stroke-linejoin=round;stroke-width:0.2;stroke-linecap:round"
d="m 23.38268590217984,27.0 m -12.12435565298214,7.0 l 0.8660254037844386,-0.5 l 0.0,-12.0 l -0.8660254037844386,-0.5 l -0.0,13.0 "
/>
<path
 style="fill:#ff0000;fill-rule:evenodd; fill-opacity:0.5;stroke:#000000;stroke-linejoin=round;stroke-width:0.2;stroke-linecap:round"
d="m 23.38268590217984,11.0 m 0,0 l -8.660254037844386,-5.0 l 8.660254037844386,-5.0 l 8.660254037844386,5.0 l -8.660254037844386,5.0 m 0.0,-1.0 l -6.928203230275509,-4.0 l 6.928203230275509,-4.0 l 6.928203230275509,4.0 l -6.928203230275509,4.0 "
/>
<path
 style="fill:#00ff00;fill-rule:evenodd; fill-opacity:0.5;stroke:#000000;stroke-linejoin=round;stroke-width:0.2;stroke-linecap:round"
d="m 23.38268590217984,11.0 m 0,0 l -0.0,10.0 l -8.660254037844386,-5.0 l 0.0,-10.0 l 8.660254037844386,5.0 m -0.8660254037844386,0.5 l -0.0,8.0 l -6.928203230275509,-4.0 l 0.0,-8.0 l 6.928203230275509,4.0 "
/>
<path
 style="fill:#0000ff;fill-rule:evenodd; fill-opacity:0.5;stroke:#000000;stroke-linejoin=round;stroke-width:0.2;stroke-linecap:round"
d="m 23.38268590217984,11.0 m 0,0 l -0.0,10.0 l 8.660254037844386,-5.0 l 0.0,-10.0 l -8.660254037844386,5.0 m 0.8660254037844386,0.5 l -0.0,8.0 l 6.928203230275509,-4.0 l 0.0,-8.0 l -6.928203230275509,4.0 "
/>
<path
 style="fill:#00ff00;fill-rule:evenodd; fill-opacity:0.5;stroke:#000000;stroke-linejoin=round;stroke-width:0.2;stroke-linecap:round"
d="m 23.38268590217984,11.0 m 0.0,-9.0 l 6.928203230275509,4.0 l -0.8660254037844386,0.5 l -6.06217782649107,-3.5 l 0.0,-1.0 "
/>
<path
 style="fill:#0000ff;fill-rule:evenodd; fill-opacity:0.5;stroke:#000000;stroke-linejoin=round;stroke-width:0.2;stroke-linecap:round"
d="m 23.38268590217984,11.0 m 0.0,-9.0 l -6.928203230275509,4.0 l 0.8660254037844386,0.5 l 6.06217782649107,-3.5 l 0.0,-1.0 "
/>
<path
 style="fill:#ff0000;fill-rule:evenodd; fill-opacity:0.5;stroke:#000000;stroke-linejoin=round;stroke-width:0.2;stroke-linecap:round"
d="m 23.38268590217984,11.0 m 7.794228634059947,4.5 l -0.8660254037844386,-0.5 l -6.06217782649107,3.5 l -0.0,1.0 l 6.928203230275509,-4.0 "
/>
<path
 style="fill:#00ff00;fill-rule:evenodd; fill-opacity:0.5;stroke:#000000;stroke-linejoin=round;stroke-width:0.2;stroke-linecap:round"
d="m 23.38268590217984,11.0 m 7.794228634059947,4.5 l -0.8660254037844386,-0.5 l 0.0,-7.0 l 0.8660254037844386,-0.5 l -0.0,8.0 "
/>
<path
 style="fill:#ff0000;fill-rule:evenodd; fill-opacity:0.5;stroke:#000000;stroke-linejoin=round;stroke-width:0.2;stroke-linecap:round"
d="m 23.38268590217984,11.0 m -7.794228634059947,4.5 l 0.8660254037844386,-0.5 l 6.06217782649107,3.5 l -0.0,1.0 l -6.928203230275509,-4.0 "
/>
<path
 style="fill:#0000ff;fill-rule:evenodd; fill-opacity:0.5;stroke:#000000;stroke-linejoin=round;stroke-width:0.2;stroke-linecap:round"
d="m 23.38268590217984,11.0 m -7.794228634059947,4.5 l 0.8660254037844386,-0.5 l 0.0,-7.0 l -0.8660254037844386,-0.5 l -0.0,8.0 "
/>
<path
 style="fill:#ff0000;fill-rule:evenodd; fill-opacity:0.5;stroke:#000000;stroke-linejoin=round;stroke-width:0.2;stroke-linecap:round"
d="m 9.526279441628823,35.0 m 0,0 l -8.660254037844386,-5.0 l 8.660254037844386,-5.0 l 8.660254037844386,5.0 l -8.660254037844386,5.0 m 0.0,-1.0 l -6.928203230275509,-4.0 l 6.928203230275509,-4.0 l 6.928203230275509,4.0 l -6.928203230275509,4.0 "
/>
<path
 style="fill:#00ff00;fill-rule:evenodd; fill-opacity:0.5;stroke:#000000;stroke-linejoin=round;stroke-width:0.2;stroke-linecap:round"
d="m 9.526279441628823,35.0 m 0,0 l -0.0,10.0 l -8.660254037844386,-5.0 l 0.0,-10.0 l 8.660254037844386,5.0 m -0.8660254037844386,0.5 l -0.0,8.0 l -6.928203230275509,-4.0 l 0.0,-8.0 l 6.928203230275509,4.0 "
/>
<path
 style="fill:#0000ff;fill-rule:evenodd; fill-opacity:0.5;stroke:#000000;stroke-linejoin=round;stroke-width:0.2;stroke-linecap:round"
d="m 9.526279441628823,35.0 m 0,0 l -0.0,10.0 l 8.660254037844386,-5.0 l 0.0,-10.0 l -8.660254037844386,5.0 m 0.8660254037844386,0.5 l -0.0,8.0 l 6.928203230275509,-4.0 l 0.0,-8.0 l -6.928203230275509,4.0 "
/>
<path
 style="fill:#00ff00;fill-rule:evenodd; fill-opacity:0.5;stroke:#000000;stroke-linejoin=round;stroke-width:0.2;stroke-linecap:round"
d="m 9.526279441628823,35.0 m 0.0,-9.0 l 6.928203230275509,4.0 l -0.8660254037844386,0.5 l -6.06217782649107,-3.5 l 0.0,-1.0 "
/>
<path
 style="fill:#0000ff;fill-rule:evenodd; fill-opacity:0.5;stroke:#000000;stroke-linejoin=round;stroke-width:0.2;stroke-linecap:round"
d="m 9.526279441628823,35.0 m 0.0,-9.0 l -6.928203230275509,4.0 l 0.8660254037844386,0.5 l 6.06217782649107,-3.5 l 0.0,-1.0 "
/>
<path
 style="fill:#ff0000;fill-rule:evenodd; fill-opacity:0.5;stroke:#000000;stroke-linejoin=round;stroke-width:0.2;stroke-linecap:round"
d="m 9.526279441628823,35.0 m 7.794228634059947,4.5 l -0.8660254037844386,-0.5 l -6.06217782649107,3.5 l -0.0,1.0 l 6.928203230275509,-4.0 "
/>
<path
 style="fill:#00ff00;fill-rule:evenodd; fill-opacity:0.5;stroke:#000000;stroke-linejoin=round;stroke-width:0.2;stroke-linecap:round"
d="m 9.526279441628823,35.0 m 7.794228634059947,4.5 l -0.8660254037844386,-0.5 l 0.0,-7.0 l 0.8660254037844386,-0.5 l -0.0,8.0 "
/>
<path
 style="fill:#ff0000;fill-rule:evenodd; fill-opacity:0.5;stroke:#000000;stroke-linejoin=round;stroke-width:0.2;stroke-linecap:round"
d="m 9.526279441628823,35.0 m -7.794228634059947,4.5 l 0.8660254037844386,-0.5 l 6.06217782649107,3.5 l -0.0,1.0 l -6.928203230275509,-4.0 "
/>
<path
 style="fill:#0000ff;fill-rule:evenodd; fill-opacity:0.5;stroke:#000000;stroke-linejoin=round;stroke-width:0.2;stroke-linecap:round"
d="m 9.526279441628823,35.0 m -7.794228634059947,4.5 l 0.8660254037844386,-0.5 l 0.0,-7.0 l -0.8660254037844386,-0.5 l -0.0,8.0 "
/>
<path
 style="fill:#ff0000;fill-rule:evenodd; fill-opacity:0.5;stroke:#000000;stroke-linejoin=round;stroke-width:0.2;stroke-linecap:round"
d="m 37.23909236273086,35.0 m 0,0 l -8.660254037844386,-5.0 l 8.660254037844386,-5.0 l 8.660254037844386,5.0 l -8.660254037844386,5.0 m 0.0,-1.0 l -6.928203230275509,-4.0 l 6.928203230275509,-4.0 l 6.928203230275509,4.0 l -6.928203230275509,4.0 "
/>
<path
 style="fill:#00ff00;fill-rule:evenodd; fill-opacity:0.5;stroke:#000000;stroke-linejoin=round;stroke-width:0.2;stroke-linecap:round"
d="m 37.23909236273086,35.0 m 0,0 l -0.0,10.0 l -8.660254037844386,-5.0 l 0.0,-10.0 l 8.660254037844386,5.0 m -0.8660254037844386,0.5 l -0.0,8.0 l -6.928203230275509,-4.0 l 0.0,-8.0 l 6.928203230275509,4.0 "
/>
<path
 style="fill:#0000ff;fill-rule:evenodd; fill-opacity:0.5;stroke:#000000;stroke-linejoin=round;stroke-width:0.2;stroke-linecap:round"
d="m 37.23909236273086,35.0 m 0,0 l -0.0,10.0 l 8.660254037844386,-5.0 l 0.0,-10.0 l -8.660254037844386,5.0 m 0.8660254037844386,0.5 l -0.0,8.0 l 6.928203230275509,-4.0 l 0.0,-8.0 l -6.928203230275509,4.0 "
/>
<path
 style="fill:#00ff00;fill-rule:evenodd; fill-opacity:0.5;stroke:#000000;stroke-linejoin=round;stroke-width:0.2;stroke-linecap:round"
d="m 37.23909236273086,35.0 m 0.0,-9.0 l 6.928203230275509,4.0 l -0.8660254037844386,0.5 l -6.06217782649107,-3.5 l 0.0,-1.0 "
/>
<path
 style="fill:#0000ff;fill-rule:evenodd; fill-opacity:0.5;stroke:#000000;stroke-linejoin=round;stroke-width:0.2;stroke-linecap:round"
d="m 37.23909236273086,35.0 m 0.0,-9.0 l -6.928203230275509,4.0 l 0.8660254037844386,0.5 l 6.06217782649107,-3.5 l 0.0,-1.0 "
/>
<path
 style="fill:#ff0000;fill-rule:evenodd; fill-opacity:0.5;stroke:#000000;stroke-linejoin=round;stroke-width:0.2;stroke-linecap:round"
d="m 37.23909236273086,35.0 m 7.794228634059947,4.5 l -0.8660254037844386,-0.5 l -6.06217782649107,3.5 l -0.0,1.0 l 6.928203230275509,-4.0 "
/>
<path
 style="fill:#00ff00;fill-rule:evenodd; fill-opacity:0.5;stroke:#000000;stroke-linejoin=round;stroke-width:0.2;stroke-linecap:round"
d="m 37.23909236273086,35.0 m 7.794228634059947,4.5 l -0.8660254037844386,-0.5 l 0.0,-7.0 l 0.8660254037844386,-0.5 l -0.0,8.0 "
/>
<path
 style="fill:#ff0000;fill-rule:evenodd; fill-opacity:0.5;stroke:#000000;stroke-linejoin=round;stroke-width:0.2;stroke-linecap:round"
d="m 37.23909236273086,35.0 m -7.794228634059947,4.5 l 0.8660254037844386,-0.5 l 6.06217782649107,3.5 l -0.0,1.0 l -6.928203230275509,-4.0 "
/>
<path
 style="fill:#0000ff;fill-rule:evenodd; fill-opacity:0.5;stroke:#000000;stroke-linejoin=round;stroke-width:0.2;stroke-linecap:round"
d="m 37.23909236273086,35.0 m -7.794228634059947,4.5 l 0.8660254037844386,-0.5 l 0.0,-7.0 l -0.8660254037844386,-0.5 l -0.0,8.0 "
/>
<path
 style="fill:#ff0000;fill-rule:evenodd; fill-opacity:0.5;stroke:#000000;stroke-linejoin=round;stroke-width:0.2;stroke-linecap:round"
d="m 28.578838324886473,24.0 m 0,0 l -4.330127018922193,-2.5 l 4.330127018922193,-2.5 l 4.330127018922193,2.5 l -4.330127018922193,2.5 m 0.0,-1.0 l -2.598076211353316,-1.5 l 2.598076211353316,-1.5 l 2.598076211353316,1.5 l -2.598076211353316,1.5 "
/>
<path
 style="fill:#00ff00;fill-rule:evenodd; fill-opacity:0.5;stroke:#000000;stroke-linejoin=round;stroke-width:0.2;stroke-linecap:round"
d="m 28.578838324886473,24.0 m 0,0 l -0.0,5.0 l -4.330127018922193,-2.5 l 0.0,-5.0 l 4.330127018922193,2.5 m -0.8660254037844386,0.5 l -0.0,3.0 l -2.598076211353316,-1.5 l 0.0,-3.0 l 2.598076211353316,1.5 "
/>
<path
 style="fill:#0000ff;fill-rule:evenodd; fill-opacity:0.5;stroke:#000000;stroke-linejoin=round;stroke-width:0.2;stroke-linecap:round"
d="m 28.578838324886473,24.0 m 0,0 l -0.0,5.0 l 4.330127018922193,-2.5 l 0.0,-5.0 l -4.330127018922193,2.5 m 0.8660254037844386,0.5 l -0.0,3.0 l 2.598076211353316,-1.5 l 0.0,-3.0 l -2.598076211353316,1.5 "
/>
<path
 style="fill:#00ff00;fill-rule:evenodd; fill-opacity:0.5;stroke:#000000;stroke-linejoin=round;stroke-width:0.2;stroke-linecap:round"
d="m 28.578838324886473,24.0 m 0.0,-4.0 l 2.598076211353316,1.5 l -0.8660254037844386,0.5 l -1.7320508075688772,-1.0 l 0.0,-1.0 "
/>
<path
 style="fill:#0000ff;fill-rule:evenodd; fill-opacity:0.5;stroke:#000000;stroke-linejoin=round;stroke-width:0.2;stroke-linecap:round"
d="m 28.578838324886473,24.0 m 0.0,-4.0 l -2.598076211353316,1.5 l 0.8660254037844386,0.5 l 1.7320508075688772,-1.0 l 0.0,-1.0 "
/>
<path
 style="fill:#ff0000;fill-rule:evenodd; fill-opacity:0.5;stroke:#000000;stroke-linejoin=round;stroke-width:0.2;stroke-linecap:round"
d="m 28.578838324886473,24.0 m 3.4641016151377544,2.0 l -0.8660254037844386,-0.5 l -1.7320508075688772,1.0 l -0.0,1.0 l 2.598076211353316,-1.5 "
/>
<path
 style="fill:#00ff00;fill-rule:evenodd; fill-opacity:0.5;stroke:#000000;stroke-linejoin=round;stroke-width:0.2;stroke-linecap:round"
d="m 28.578838324886473,24.0 m 3.4641016151377544,2.0 l -0.8660254037844386,-0.5 l 0.0,-2.0 l 0.8660254037844386,-0.5 l -0.0,3.0 "
/>
<path
 style="fill:#ff0000;fill-rule:evenodd; fill-opacity:0.5;stroke:#000000;stroke-linejoin=round;stroke-width:0.2;stroke-linecap:round"
d="m 28.578838324886473,24.0 m -3.4641016151377544,2.0 l 0.8660254037844386,-0.5 l 1.7320508075688772,1.0 l -0.0,1.0 l -2.598076211353316,-1.5 "
/>
<path
 style="fill:#0000ff;fill-rule:evenodd; fill-opacity:0.5;stroke:#000000;stroke-linejoin=round;stroke-width:0.2;stroke-linecap:round"
d="m 28.578838324886473,24.0 m -3.4641016151377544,2.0 l 0.8660254037844386,-0.5 l 0.0,-2.0 l -0.8660254037844386,-0.5 l -0.0,3.0 "
/>
<path
 style="fill:#ff0000;fill-rule:evenodd; fill-opacity:0.5;stroke:#000000;stroke-linejoin=round;stroke-width:0.2;stroke-linecap:round"
d="m 18.18653347947321,24.0 m 0,0 l -4.330127018922193,-2.5 l 4.330127018922193,-2.5 l 4.330127018922193,2.5 l -4.330127018922193,2.5 m 0.0,-1.0 l -2.598076211353316,-1.5 l 2.598076211353316,-1.5 l 2.598076211353316,1.5 l -2.598076211353316,1.5 "
/>
<path
 style="fill:#00ff00;fill-rule:evenodd; fill-opacity:0.5;stroke:#000000;stroke-linejoin=round;stroke-width:0.2;stroke-linecap:round"
d="m 18.18653347947321,24.0 m 0,0 l -0.0,5.0 l -4.330127018922193,-2.5 l 0.0,-5.0 l 4.330127018922193,2.5 m -0.8660254037844386,0.5 l -0.0,3.0 l -2.598076211353316,-1.5 l 0.0,-3.0 l 2.598076211353316,1.5 "
/>
<path
 style="fill:#0000ff;fill-rule:evenodd; fill-opacity:0.5;stroke:#000000;stroke-linejoin=round;stroke-width:0.2;stroke-linecap:round"
d="m 18.18653347947321,24.0 m 0,0 l -0.0,5.0 l 4.330127018922193,-2.5 l 0.0,-5.0 l -4.330127018922193,2.5 m 0.8660254037844386,0.5 l -0.0,3.0 l 2.598076211353316,-1.5 l 0.0,-3.0 l -2.598076211353316,1.5 "
/>
<path
 style="fill:#00ff00;fill-rule:evenodd; fill-opacity:0.5;stroke:#000000;stroke-linejoin=round;stroke-width:0.2;stroke-linecap:round"
d="m 18.18653347947321,24.0 m 0.0,-4.0 l 2.598076211353316,1.5 l -0.8660254037844386,0.5 l -1.7320508075688772,-1.0 l 0.0,-1.0 "
/>
<path
 style="fill:#0000ff;fill-rule:evenodd; fill-opacity:0.5;stroke:#000000;stroke-linejoin=round;stroke-width:0.2;stroke-linecap:round"
d="m 18.18653347947321,24.0 m 0.0,-4.0 l -2.598076211353316,1.5 l 0.8660254037844386,0.5 l 1.7320508075688772,-1.0 l 0.0,-1.0 "
/>
<path
 style="fill:#ff0000;fill-rule:evenodd; fill-opacity:0.5;stroke:#000000;stroke-linejoin=round;stroke-width:0.2;stroke-linecap:round"
d="m 18.18653347947321,24.0 m 3.4641016151377544,2.0 l -0.8660254037844386,-0.5 l -1.7320508075688772,1.0 l -0.0,1.0 l 2.598076211353316,-1.5 "
/>
<path
 style="fill:#00ff00;fill-rule:evenodd; fill-opacity:0.5;stroke:#000000;stroke-linejoin=round;stroke-width:0.2;stroke-linecap:round"
d="m 18.18653347947321,24.0 m 3.4641016151377544,2.0 l -0.8660254037844386,-0.5 l 0.0,-2.0 l 0.8660254037844386,-0.5 l -0.0,3.0 "
/>
<path
 style="fill:#ff0000;fill-rule:evenodd; fill-opacity:0.5;stroke:#000000;stroke-linejoin=round;stroke-width:0.2;stroke-linecap:round"
d="m 18.18653347947321,24.0 m -3.4641016151377544,2.0 l 0.8660254037844386,-0.5 l 1.7320508075688772,1.0 l -0.0,1.0 l -2.598076211353316,-1.5 "
/>
<path
 style="fill:#0000ff;fill-rule:evenodd; fill-opacity:0.5;stroke:#000000;stroke-linejoin=round;stroke-width:0.2;stroke-linecap:round"
d="m 18.18653347947321,24.0 m -3.4641016151377544,2.0 l 0.8660254037844386,-0.5 l 0.0,-2.0 l -0.8660254037844386,-0.5 l -0.0,3.0 "
/>
<path
 style="fill:#ff0000;fill-rule:evenodd; fill-opacity:0.5;stroke:#000000;stroke-linejoin=round;stroke-width:0.2;stroke-linecap:round"
d="m 23.38268590217984,33.0 m 0,0 l -4.330127018922193,-2.5 l 4.330127018922193,-2.5 l 4.330127018922193,2.5 l -4.330127018922193,2.5 m 0.0,-1.0 l -2.598076211353316,-1.5 l 2.598076211353316,-1.5 l 2.598076211353316,1.5 l -2.598076211353316,1.5 "
/>
<path
 style="fill:#00ff00;fill-rule:evenodd; fill-opacity:0.5;stroke:#000000;stroke-linejoin=round;stroke-width:0.2;stroke-linecap:round"
d="m 23.38268590217984,33.0 m 0,0 l -0.0,5.0 l -4.330127018922193,-2.5 l 0.0,-5.0 l 4.330127018922193,2.5 m -0.8660254037844386,0.5 l -0.0,3.0 l -2.598076211353316,-1.5 l 0.0,-3.0 l 2.598076211353316,1.5 "
/>
<path
 style="fill:#0000ff;fill-rule:evenodd; fill-opacity:0.5;stroke:#000000;stroke-linejoin=round;stroke-width:0.2;stroke-linecap:round"
d="m 23.38268590217984,33.0 m 0,0 l -0.0,5.0 l 4.330127018922193,-2.5 l 0.0,-5.0 l -4.330127018922193,2.5 m 0.8660254037844386,0.5 l -0.0,3.0 l 2.598076211353316,-1.5 l 0.0,-3.0 l -2.598076211353316,1.5 "
/>
<path
 style="fill:#00ff00;fill-rule:evenodd; fill-opacity:0.5;stroke:#000000;stroke-linejoin=round;stroke-width:0.2;stroke-linecap:round"
d="m 23.38268590217984,33.0 m 0.0,-4.0 l 2.598076211353316,1.5 l -0.8660254037844386,0.5 l -1.7320508075688772,-1.0 l 0.0,-1.0 "
/>
<path
 style="fill:#0000ff;fill-rule:evenodd; fill-opacity:0.5;stroke:#000000;stroke-linejoin=round;stroke-width:0.2;stroke-linecap:round"
d="m 23.38268590217984,33.0 m 0.0,-4.0 l -2.598076211353316,1.5 l 0.8660254037844386,0.5 l 1.7320508075688772,-1.0 l 0.0,-1.0 "
/>
<path
 style="fill:#ff0000;fill-rule:evenodd; fill-opacity:0.5;stroke:#000000;stroke-linejoin=round;stroke-width:0.2;stroke-linecap:round"
d="m 23.38268590217984,33.0 m 3.4641016151377544,2.0 l -0.8660254037844386,-0.5 l -1.7320508075688772,1.0 l -0.0,1.0 l 2.598076211353316,-1.5 "
/>
<path
 style="fill:#00ff00;fill-rule:evenodd; fill-opacity:0.5;stroke:#000000;stroke-linejoin=round;stroke-width:0.2;stroke-linecap:round"
d="m 23.38268590217984,33.0 m 3.4641016151377544,2.0 l -0.8660254037844386,-0.5 l 0.0,-2.0 l 0.8660254037844386,-0.5 l -0.0,3.0 "
/>
<path
 style="fill:#ff0000;fill-rule:evenodd; fill-opacity:0.5;stroke:#000000;stroke-linejoin=round;stroke-width:0.2;stroke-linecap:round"
d="m 23.38268590217984,33.0 m -3.4641016151377544,2.0 l 0.8660254037844386,-0.5 l 1.7320508075688772,1.0 l -0.0,1.0 l -2.598076211353316,-1.5 "
/>
<path
 style="fill:#0000ff;fill-rule:evenodd; fill-opacity:0.5;stroke:#000000;stroke-linejoin=round;stroke-width:0.2;stroke-linecap:round"
d="m 23.38268590217984,33.0 m -3.4641016151377544,2.0 l 0.8660254037844386,-0.5 l 0.0,-2.0 l -0.8660254037844386,-0.5 l -0.0,3.0 "
/>
<path
 style="fill:#ff0000;fill-rule:evenodd; fill-opacity:0.5;stroke:#000000;stroke-linejoin=round;stroke-width:0.2;stroke-linecap:round"
d="m 44.16729559300637,31.0 m 0,0 l -4.330127018922193,-2.5 l 4.330127018922193,-2.5 l 4.330127018922193,2.5 l -4.330127018922193,2.5 m 0.0,-1.0 l -2.598076211353316,-1.5 l 2.598076211353316,-1.5 l 2.598076211353316,1.5 l -2.598076211353316,1.5 "
/>
<path
 style="fill:#00ff00;fill-rule:evenodd; fill-opacity:0.5;stroke:#000000;stroke-linejoin=round;stroke-width:0.2;stroke-linecap:round"
d="m 44.16729559300637,31.0 m 0,0 l -0.0,5.0 l -4.330127018922193,-2.5 l 0.0,-5.0 l 4.330127018922193,2.5 m -0.8660254037844386,0.5 l -0.0,3.0 l -2.598076211353316,-1.5 l 0.0,-3.0 l 2.598076211353316,1.5 "
/>
<path
 style="fill:#0000ff;fill-rule:evenodd; fill-opacity:0.5;stroke:#000000;stroke-linejoin=round;stroke-width:0.2;stroke-linecap:round"
d="m 44.16729559300637,31.0 m 0,0 l -0.0,5.0 l 4.330127018922193,-2.5 l 0.0,-5.0 l -4.330127018922193,2.5 m 0.8660254037844386,0.5 l -0.0,3.0 l 2.598076211353316,-1.5 l 0.0,-3.0 l -2.598076211353316,1.5 "
/>
<path
 style="fill:#00ff00;fill-rule:evenodd; fill-opacity:0.5;stroke:#000000;stroke-linejoin=round;stroke-width:0.2;stroke-linecap:round"
d="m 44.16729559300637,31.0 m 0.0,-4.0 l 2.598076211353316,1.5 l -0.8660254037844386,0.5 l -1.7320508075688772,-1.0 l 0.0,-1.0 "
/>
<path
 style="fill:#0000ff;fill-rule:evenodd; fill-opacity:0.5;stroke:#000000;stroke-linejoin=round;stroke-width:0.2;stroke-linecap:round"
d="m 44.16729559300637,31.0 m 0.0,-4.0 l -2.598076211353316,1.5 l 0.8660254037844386,0.5 l 1.7320508075688772,-1.0 l 0.0,-1.0 "
/>
<path
 style="fill:#ff0000;fill-rule:evenodd; fill-opacity:0.5;stroke:#000000;stroke-linejoin=round;stroke-width:0.2;stroke-linecap:round"
d="m 44.16729559300637,31.0 m 3.4641016151377544,2.0 l -0.8660254037844386,-0.5 l -1.7320508075688772,1.0 l -0.0,1.0 l 2.598076211353316,-1.5 "
/>
<path
 style="fill:#00ff00;fill-rule:evenodd; fill-opacity:0.5;stroke:#000000;stroke-linejoin=round;stroke-width:0.2;stroke-linecap:round"
d="m 44.16729559300637,31.0 m 3.4641016151377544,2.0 l -0.8660254037844386,-0.5 l 0.0,-2.0 l 0.8660254037844386,-0.5 l -0.0,3.0 "
/>
<path
 style="fill:#ff0000;fill-rule:evenodd; fill-opacity:0.5;stroke:#000000;stroke-linejoin=round;stroke-width:0.2;stroke-linecap:round"
d="m 44.16729559300637,31.0 m -3.4641016151377544,2.0 l 0.8660254037844386,-0.5 l 1.7320508075688772,1.0 l -0.0,1.0 l -2.598076211353316,-1.5 "
/>
<path
 style="fill:#0000ff;fill-rule:evenodd; fill-opacity:0.5;stroke:#000000;stroke-linejoin=round;stroke-width:0.2;stroke-linecap:round"
d="m 44.16729559300637,31.0 m -3.4641016151377544,2.0 l 0.8660254037844386,-0.5 l 0.0,-2.0 l -0.8660254037844386,-0.5 l -0.0,3.0 "
/>
</svg>